<?xml version="1.0" encoding="UTF-8" standalone="no"?>
<!DOCTYPE svg PUBLIC "-//W3C//DTD SVG 1.1//EN"
 "http://www.w3.org/Graphics/SVG/1.1/DTD/svg11.dtd">
<!-- Generated by graphviz version 2.47.0 (20210316.0004)
 -->
<!-- Title: dependencies Pages: 1 -->
<svg width="504pt" height="211pt"
 viewBox="0.00 0.00 504.00 211.00" xmlns="http://www.w3.org/2000/svg" xmlns:xlink="http://www.w3.org/1999/xlink">
<g id="graph0" class="graph" transform="scale(1 1) rotate(0) translate(4 207)">
<title>dependencies</title>
<polygon fill="white" stroke="transparent" points="-4,4 -4,-207 500,-207 500,4 -4,4"/>
<text text-anchor="start" x="227.01" y="-42.4" font-family="Times-12" font-weight="bold" font-size="14.00">Legend</text>
<polygon fill="#ffffb3" stroke="transparent" points="14,-10 14,-30 34,-30 34,-10 14,-10"/>
<text text-anchor="start" x="37.63" y="-15.4" font-family="Times-12" font-size="14.00"> &#160;Declarations</text>
<polygon fill="#8dd3c7" stroke="transparent" points="127,-10 127,-30 147,-30 147,-10 127,-10"/>
<text text-anchor="start" x="150.73" y="-15.4" font-family="Times-12" font-size="14.00"> &#160;Module</text>
<polygon fill="#80b1d3" stroke="transparent" points="213,-10 213,-30 233,-30 233,-10 213,-10"/>
<text text-anchor="start" x="236.78" y="-15.4" font-family="Times-12" font-size="14.00"> &#160;Bootstrap</text>
<polygon fill="#fdb462" stroke="transparent" points="310,-10 310,-30 330,-30 330,-10 310,-10"/>
<text text-anchor="start" x="333.67" y="-15.4" font-family="Times-12" font-size="14.00"> &#160;Providers</text>
<polygon fill="#fb8072" stroke="transparent" points="406,-10 406,-30 426,-30 426,-10 406,-10"/>
<text text-anchor="start" x="429.73" y="-15.4" font-family="Times-12" font-size="14.00"> &#160;Exports</text>
<g id="clust1" class="cluster">
<title>cluster_LocationModule</title>
<polygon fill="none" stroke="black" stroke-dasharray="1,5" points="96,-70 96,-195 400,-195 400,-70 96,-70"/>
</g>
<g id="clust6" class="cluster">
<title>cluster_LocationModule_providers</title>
<polygon fill="none" stroke="black" points="228,-78 228,-130 392,-130 392,-78 228,-78"/>
</g>
<g id="clust3" class="cluster">
<title>cluster_LocationModule_imports</title>
<polygon fill="none" stroke="black" points="104,-78 104,-130 220,-130 220,-78 104,-78"/>
</g>
<!-- LoggerModule -->
<g id="node1" class="node">
<title>LoggerModule</title>
<polygon fill="#8dd3c7" stroke="black" points="211.98,-122 208.98,-126 187.98,-126 184.98,-122 112.02,-122 112.02,-86 211.98,-86 211.98,-122"/>
<text text-anchor="middle" x="162" y="-99.8" font-family="Times,serif" font-size="14.00">LoggerModule</text>
</g>
<!-- LocationModule -->
<g id="node2" class="node">
<title>LocationModule</title>
<polygon fill="#8dd3c7" stroke="black" points="290.81,-187 287.81,-191 266.81,-191 263.81,-187 181.19,-187 181.19,-151 290.81,-151 290.81,-187"/>
<text text-anchor="middle" x="236" y="-164.8" font-family="Times,serif" font-size="14.00">LocationModule</text>
</g>
<!-- LoggerModule&#45;&gt;LocationModule -->
<g id="edge1" class="edge">
<title>LoggerModule&#45;&gt;LocationModule</title>
<path fill="none" stroke="black" d="M196.67,-122.11C196.67,-122.11 196.67,-140.99 196.67,-140.99"/>
<polygon fill="black" stroke="black" points="193.17,-140.99 196.67,-150.99 200.17,-140.99 193.17,-140.99"/>
</g>
<!-- LocationService -->
<g id="node3" class="node">
<title>LocationService</title>
<ellipse fill="#fdb462" stroke="black" cx="310" cy="-104" rx="74.14" ry="18"/>
<text text-anchor="middle" x="310" y="-99.8" font-family="Times,serif" font-size="14.00">LocationService</text>
</g>
<!-- LocationService&#45;&gt;LocationModule -->
<g id="edge2" class="edge">
<title>LocationService&#45;&gt;LocationModule</title>
<path fill="none" stroke="black" d="M263.17,-118.1C263.17,-118.1 263.17,-140.72 263.17,-140.72"/>
<polygon fill="black" stroke="black" points="259.67,-140.72 263.17,-150.72 266.67,-140.72 259.67,-140.72"/>
</g>
</g>
</svg>
