<?xml version="1.0" encoding="UTF-8" standalone="no"?>
<!DOCTYPE svg PUBLIC "-//W3C//DTD SVG 1.1//EN"
 "http://www.w3.org/Graphics/SVG/1.1/DTD/svg11.dtd">
<!-- Generated by graphviz version 2.47.0 (20210316.0004)
 -->
<!-- Title: dependencies Pages: 1 -->
<svg width="548pt" height="211pt"
 viewBox="0.00 0.00 548.00 211.00" xmlns="http://www.w3.org/2000/svg" xmlns:xlink="http://www.w3.org/1999/xlink">
<g id="graph0" class="graph" transform="scale(1 1) rotate(0) translate(4 207)">
<title>dependencies</title>
<polygon fill="white" stroke="transparent" points="-4,4 -4,-207 544,-207 544,4 -4,4"/>
<text text-anchor="start" x="249.01" y="-42.4" font-family="Times-12" font-weight="bold" font-size="14.00">Legend</text>
<polygon fill="#ffffb3" stroke="transparent" points="36,-10 36,-30 56,-30 56,-10 36,-10"/>
<text text-anchor="start" x="59.63" y="-15.4" font-family="Times-12" font-size="14.00"> &#160;Declarations</text>
<polygon fill="#8dd3c7" stroke="transparent" points="149,-10 149,-30 169,-30 169,-10 149,-10"/>
<text text-anchor="start" x="172.73" y="-15.4" font-family="Times-12" font-size="14.00"> &#160;Module</text>
<polygon fill="#80b1d3" stroke="transparent" points="235,-10 235,-30 255,-30 255,-10 235,-10"/>
<text text-anchor="start" x="258.78" y="-15.4" font-family="Times-12" font-size="14.00"> &#160;Bootstrap</text>
<polygon fill="#fdb462" stroke="transparent" points="332,-10 332,-30 352,-30 352,-10 332,-10"/>
<text text-anchor="start" x="355.67" y="-15.4" font-family="Times-12" font-size="14.00"> &#160;Providers</text>
<polygon fill="#fb8072" stroke="transparent" points="428,-10 428,-30 448,-30 448,-10 428,-10"/>
<text text-anchor="start" x="451.73" y="-15.4" font-family="Times-12" font-size="14.00"> &#160;Exports</text>
<g id="clust1" class="cluster">
<title>cluster_AppModule</title>
<polygon fill="none" stroke="black" stroke-dasharray="1,5" points="8,-70 8,-195 532,-195 532,-70 8,-70"/>
</g>
<g id="clust3" class="cluster">
<title>cluster_AppModule_imports</title>
<polygon fill="none" stroke="black" points="154,-78 154,-130 524,-130 524,-78 154,-78"/>
</g>
<g id="clust6" class="cluster">
<title>cluster_AppModule_providers</title>
<polygon fill="none" stroke="black" points="16,-78 16,-130 146,-130 146,-78 16,-78"/>
</g>
<!-- BuildingModule -->
<g id="node1" class="node">
<title>BuildingModule</title>
<polygon fill="#8dd3c7" stroke="black" points="516.06,-122 513.06,-126 492.06,-126 489.06,-122 407.94,-122 407.94,-86 516.06,-86 516.06,-122"/>
<text text-anchor="middle" x="462" y="-99.8" font-family="Times,serif" font-size="14.00">BuildingModule</text>
</g>
<!-- AppModule -->
<g id="node4" class="node">
<title>AppModule</title>
<polygon fill="#8dd3c7" stroke="black" points="314.66,-187 311.66,-191 290.66,-191 287.66,-187 231.34,-187 231.34,-151 314.66,-151 314.66,-187"/>
<text text-anchor="middle" x="273" y="-164.8" font-family="Times,serif" font-size="14.00">AppModule</text>
</g>
<!-- BuildingModule&#45;&gt;AppModule -->
<g id="edge1" class="edge">
<title>BuildingModule&#45;&gt;AppModule</title>
<path fill="none" stroke="black" d="M462,-122.11C462,-141.34 462,-169 462,-169 462,-169 324.95,-169 324.95,-169"/>
<polygon fill="black" stroke="black" points="324.95,-165.5 314.95,-169 324.95,-172.5 324.95,-165.5"/>
</g>
<!-- LocationModule -->
<g id="node2" class="node">
<title>LocationModule</title>
<polygon fill="#8dd3c7" stroke="black" points="389.81,-122 386.81,-126 365.81,-126 362.81,-122 280.19,-122 280.19,-86 389.81,-86 389.81,-122"/>
<text text-anchor="middle" x="335" y="-99.8" font-family="Times,serif" font-size="14.00">LocationModule</text>
</g>
<!-- LocationModule&#45;&gt;AppModule -->
<g id="edge2" class="edge">
<title>LocationModule&#45;&gt;AppModule</title>
<path fill="none" stroke="black" d="M297.59,-122.11C297.59,-122.11 297.59,-140.99 297.59,-140.99"/>
<polygon fill="black" stroke="black" points="294.09,-140.99 297.59,-150.99 301.09,-140.99 294.09,-140.99"/>
</g>
<!-- LoggerModule -->
<g id="node3" class="node">
<title>LoggerModule</title>
<polygon fill="#8dd3c7" stroke="black" points="261.98,-122 258.98,-126 237.98,-126 234.98,-122 162.02,-122 162.02,-86 261.98,-86 261.98,-122"/>
<text text-anchor="middle" x="212" y="-99.8" font-family="Times,serif" font-size="14.00">LoggerModule</text>
</g>
<!-- LoggerModule&#45;&gt;AppModule -->
<g id="edge3" class="edge">
<title>LoggerModule&#45;&gt;AppModule</title>
<path fill="none" stroke="black" d="M246.58,-122.11C246.58,-122.11 246.58,-140.99 246.58,-140.99"/>
<polygon fill="black" stroke="black" points="243.08,-140.99 246.58,-150.99 250.08,-140.99 243.08,-140.99"/>
</g>
<!-- AppService -->
<g id="node5" class="node">
<title>AppService</title>
<ellipse fill="#fdb462" stroke="black" cx="81" cy="-104" rx="56.74" ry="18"/>
<text text-anchor="middle" x="81" y="-99.8" font-family="Times,serif" font-size="14.00">AppService</text>
</g>
<!-- AppService&#45;&gt;AppModule -->
<g id="edge4" class="edge">
<title>AppService&#45;&gt;AppModule</title>
<path fill="none" stroke="black" d="M81,-122.11C81,-141.34 81,-169 81,-169 81,-169 221.34,-169 221.34,-169"/>
<polygon fill="black" stroke="black" points="221.34,-172.5 231.34,-169 221.34,-165.5 221.34,-172.5"/>
</g>
</g>
</svg>
