<?xml version="1.0" encoding="UTF-8" standalone="no"?>
<!DOCTYPE svg PUBLIC "-//W3C//DTD SVG 1.1//EN"
 "http://www.w3.org/Graphics/SVG/1.1/DTD/svg11.dtd">
<!-- Generated by graphviz version 2.47.0 (20210316.0004)
 -->
<!-- Title: dependencies Pages: 1 -->
<svg width="910pt" height="363pt"
 viewBox="0.00 0.00 910.00 363.00" xmlns="http://www.w3.org/2000/svg" xmlns:xlink="http://www.w3.org/1999/xlink">
<g id="graph0" class="graph" transform="scale(1 1) rotate(0) translate(4 359)">
<title>dependencies</title>
<polygon fill="white" stroke="transparent" points="-4,4 -4,-359 906,-359 906,4 -4,4"/>
<text text-anchor="start" x="430.01" y="-42.4" font-family="Times-12" font-weight="bold" font-size="14.00">Legend</text>
<polygon fill="#ffffb3" stroke="transparent" points="217,-10 217,-30 237,-30 237,-10 217,-10"/>
<text text-anchor="start" x="240.63" y="-15.4" font-family="Times-12" font-size="14.00"> &#160;Declarations</text>
<polygon fill="#8dd3c7" stroke="transparent" points="330,-10 330,-30 350,-30 350,-10 330,-10"/>
<text text-anchor="start" x="353.73" y="-15.4" font-family="Times-12" font-size="14.00"> &#160;Module</text>
<polygon fill="#80b1d3" stroke="transparent" points="416,-10 416,-30 436,-30 436,-10 416,-10"/>
<text text-anchor="start" x="439.78" y="-15.4" font-family="Times-12" font-size="14.00"> &#160;Bootstrap</text>
<polygon fill="#fdb462" stroke="transparent" points="513,-10 513,-30 533,-30 533,-10 513,-10"/>
<text text-anchor="start" x="536.67" y="-15.4" font-family="Times-12" font-size="14.00"> &#160;Providers</text>
<polygon fill="#fb8072" stroke="transparent" points="609,-10 609,-30 629,-30 629,-10 609,-10"/>
<text text-anchor="start" x="632.73" y="-15.4" font-family="Times-12" font-size="14.00"> &#160;Exports</text>
<g id="clust1" class="cluster">
<title>cluster_AppModule</title>
<polygon fill="none" stroke="black" stroke-dasharray="1,5" points="196,-146 196,-347 592,-347 592,-146 196,-146"/>
</g>
<g id="clust3" class="cluster">
<title>cluster_AppModule_imports</title>
<polygon fill="none" stroke="black" points="342,-154 342,-282 584,-282 584,-154 342,-154"/>
</g>
<g id="clust6" class="cluster">
<title>cluster_AppModule_providers</title>
<polygon fill="none" stroke="black" points="204,-230 204,-282 334,-282 334,-230 204,-230"/>
</g>
<g id="clust7" class="cluster">
<title>cluster_BuildingModule</title>
<polygon fill="none" stroke="black" stroke-dasharray="1,5" points="314,-70 314,-138 494,-138 494,-70 314,-70"/>
</g>
<g id="clust12" class="cluster">
<title>cluster_BuildingModule_providers</title>
<polygon fill="none" stroke="black" points="322,-78 322,-130 486,-130 486,-78 322,-78"/>
</g>
<g id="clust13" class="cluster">
<title>cluster_LocationModule</title>
<polygon fill="none" stroke="black" stroke-dasharray="1,5" points="8,-146 8,-214 188,-214 188,-146 8,-146"/>
</g>
<g id="clust18" class="cluster">
<title>cluster_LocationModule_providers</title>
<polygon fill="none" stroke="black" points="16,-154 16,-206 180,-206 180,-154 16,-154"/>
</g>
<g id="clust19" class="cluster">
<title>cluster_LoggerModule</title>
<polygon fill="none" stroke="black" stroke-dasharray="1,5" points="600,-222 600,-290 894,-290 894,-222 600,-222"/>
</g>
<g id="clust22" class="cluster">
<title>cluster_LoggerModule_exports</title>
<polygon fill="none" stroke="black" points="768,-230 768,-282 886,-282 886,-230 768,-230"/>
</g>
<g id="clust24" class="cluster">
<title>cluster_LoggerModule_providers</title>
<polygon fill="none" stroke="black" points="608,-230 608,-282 760,-282 760,-230 608,-230"/>
</g>
<!-- BuildingModule -->
<g id="node1" class="node">
<title>BuildingModule</title>
<polygon fill="#8dd3c7" stroke="black" points="458.06,-198 455.06,-202 434.06,-202 431.06,-198 349.94,-198 349.94,-162 458.06,-162 458.06,-198"/>
<text text-anchor="middle" x="404" y="-175.8" font-family="Times,serif" font-size="14.00">BuildingModule</text>
</g>
<!-- AppModule -->
<g id="node4" class="node">
<title>AppModule</title>
<polygon fill="#8dd3c7" stroke="black" points="483.66,-339 480.66,-343 459.66,-343 456.66,-339 400.34,-339 400.34,-303 483.66,-303 483.66,-339"/>
<text text-anchor="middle" x="442" y="-316.8" font-family="Times,serif" font-size="14.00">AppModule</text>
</g>
<!-- BuildingModule&#45;&gt;AppModule -->
<g id="edge1" class="edge">
<title>BuildingModule&#45;&gt;AppModule</title>
<path fill="none" stroke="black" d="M458.14,-180C463.97,-180 467.83,-180 467.83,-180 467.83,-180 467.83,-292.86 467.83,-292.86"/>
<polygon fill="black" stroke="black" points="464.33,-292.86 467.83,-302.86 471.33,-292.86 464.33,-292.86"/>
</g>
<!-- LocationModule -->
<g id="node2" class="node">
<title>LocationModule</title>
<polygon fill="#8dd3c7" stroke="black" points="459.81,-274 456.81,-278 435.81,-278 432.81,-274 350.19,-274 350.19,-238 459.81,-238 459.81,-274"/>
<text text-anchor="middle" x="405" y="-251.8" font-family="Times,serif" font-size="14.00">LocationModule</text>
</g>
<!-- LocationModule&#45;&gt;AppModule -->
<g id="edge2" class="edge">
<title>LocationModule&#45;&gt;AppModule</title>
<path fill="none" stroke="black" d="M429.91,-274.11C429.91,-274.11 429.91,-292.99 429.91,-292.99"/>
<polygon fill="black" stroke="black" points="426.41,-292.99 429.91,-302.99 433.41,-292.99 426.41,-292.99"/>
</g>
<!-- LoggerModule -->
<g id="node3" class="node">
<title>LoggerModule</title>
<polygon fill="#8dd3c7" stroke="black" points="575.98,-198 572.98,-202 551.98,-202 548.98,-198 476.02,-198 476.02,-162 575.98,-162 575.98,-198"/>
<text text-anchor="middle" x="526" y="-175.8" font-family="Times,serif" font-size="14.00">LoggerModule</text>
</g>
<!-- LoggerModule&#45;&gt;LocationModule -->
<g id="edge6" class="edge">
<title>LoggerModule&#45;&gt;LocationModule</title>
<path fill="none" stroke="black" d="M478.62,-198.2C478.62,-222.36 478.62,-262 478.62,-262 478.62,-262 469.66,-262 469.66,-262"/>
<polygon fill="black" stroke="black" points="469.66,-258.5 459.66,-262 469.66,-265.5 469.66,-258.5"/>
</g>
<!-- LoggerModule&#45;&gt;AppModule -->
<g id="edge3" class="edge">
<title>LoggerModule&#45;&gt;AppModule</title>
<path fill="none" stroke="black" d="M481.22,-198.14C481.22,-198.14 481.22,-292.93 481.22,-292.93"/>
<polygon fill="black" stroke="black" points="477.72,-292.92 481.22,-302.93 484.72,-292.93 477.72,-292.92"/>
</g>
<!-- LoggerService  -->
<g id="node8" class="node">
<title>LoggerService </title>
<polygon fill="#fb8072" stroke="black" points="877.91,-274 776.09,-274 776.09,-238 877.91,-238 877.91,-274"/>
<text text-anchor="middle" x="827" y="-251.8" font-family="Times,serif" font-size="14.00">LoggerService </text>
</g>
<!-- LoggerModule&#45;&gt;LoggerService  -->
<g id="edge8" class="edge">
<title>LoggerModule&#45;&gt;LoggerService </title>
<path fill="none" stroke="black" stroke-dasharray="5,2" d="M576.04,-180C661.63,-180 827,-180 827,-180 827,-180 827,-227.99 827,-227.99"/>
<polygon fill="black" stroke="black" points="823.5,-227.99 827,-237.99 830.5,-227.99 823.5,-227.99"/>
</g>
<!-- AppService -->
<g id="node5" class="node">
<title>AppService</title>
<ellipse fill="#fdb462" stroke="black" cx="269" cy="-256" rx="56.74" ry="18"/>
<text text-anchor="middle" x="269" y="-251.8" font-family="Times,serif" font-size="14.00">AppService</text>
</g>
<!-- AppService&#45;&gt;AppModule -->
<g id="edge4" class="edge">
<title>AppService&#45;&gt;AppModule</title>
<path fill="none" stroke="black" d="M269,-274.11C269,-293.34 269,-321 269,-321 269,-321 390.12,-321 390.12,-321"/>
<polygon fill="black" stroke="black" points="390.12,-324.5 400.12,-321 390.12,-317.5 390.12,-324.5"/>
</g>
<!-- BuildingService -->
<g id="node6" class="node">
<title>BuildingService</title>
<ellipse fill="#fdb462" stroke="black" cx="404" cy="-104" rx="73.59" ry="18"/>
<text text-anchor="middle" x="404" y="-99.8" font-family="Times,serif" font-size="14.00">BuildingService</text>
</g>
<!-- BuildingService&#45;&gt;BuildingModule -->
<g id="edge5" class="edge">
<title>BuildingService&#45;&gt;BuildingModule</title>
<path fill="none" stroke="black" d="M404,-122.01C404,-122.01 404,-151.85 404,-151.85"/>
<polygon fill="black" stroke="black" points="400.5,-151.85 404,-161.85 407.5,-151.85 400.5,-151.85"/>
</g>
<!-- LocationService -->
<g id="node7" class="node">
<title>LocationService</title>
<ellipse fill="#fdb462" stroke="black" cx="98" cy="-180" rx="74.14" ry="18"/>
<text text-anchor="middle" x="98" y="-175.8" font-family="Times,serif" font-size="14.00">LocationService</text>
</g>
<!-- LocationService&#45;&gt;LocationModule -->
<g id="edge7" class="edge">
<title>LocationService&#45;&gt;LocationModule</title>
<path fill="none" stroke="black" d="M172.57,-180C243.67,-180 339.96,-180 339.96,-180 339.96,-180 339.96,-256 339.96,-256 339.96,-256 340.98,-256 340.98,-256"/>
<polygon fill="black" stroke="black" points="340.12,-259.5 350.12,-256 340.12,-252.5 340.12,-259.5"/>
</g>
<!-- LoggerService -->
<g id="node9" class="node">
<title>LoggerService</title>
<ellipse fill="#fdb462" stroke="black" cx="684" cy="-256" rx="67.76" ry="18"/>
<text text-anchor="middle" x="684" y="-251.8" font-family="Times,serif" font-size="14.00">LoggerService</text>
</g>
<!-- LoggerService&#45;&gt;LoggerModule -->
<g id="edge9" class="edge">
<title>LoggerService&#45;&gt;LoggerModule</title>
<path fill="none" stroke="black" d="M619.99,-250C577.65,-250 529.91,-250 529.91,-250 529.91,-250 529.91,-208.03 529.91,-208.03"/>
<polygon fill="black" stroke="black" points="533.41,-208.03 529.91,-198.03 526.41,-208.03 533.41,-208.03"/>
</g>
</g>
</svg>
